<svg xmlns="http://www.w3.org/2000/svg" viewBox="0 0 84.96 99.6"><g id="Livello_2" data-name="Livello 2"><g id="Livello_1-2" data-name="Livello 1"><path d="M3.48,99.12a3,3,0,0,1-3-3V21.36h84V96.12a3,3,0,0,1-3,3Z" style="fill:#fff"/><path d="M84,22V96.12a2.46,2.46,0,0,1-2.52,2.52h-78A2.53,2.53,0,0,1,1,96.12V22Zm1-1.08H0V96.12A3.48,3.48,0,0,0,3.48,99.6h78A3.48,3.48,0,0,0,85,96.12Z" style="fill:#3e4194"/><path d="M10.56,92a3.07,3.07,0,0,1-3-3.12V31.56a3,3,0,0,1,3-3H74.4a3,3,0,0,1,3,3V88.92a3.07,3.07,0,0,1-3,3.12Z" style="fill:#fff"/><path d="M74.4,29a2.53,2.53,0,0,1,2.52,2.52V88.92a2.46,2.46,0,0,1-2.52,2.52H10.56A2.53,2.53,0,0,1,8,88.92V31.56A2.62,2.62,0,0,1,10.56,29Zm0-1H10.56a3.48,3.48,0,0,0-3.48,3.48V88.92a3.51,3.51,0,0,0,3.48,3.6H74.4a3.51,3.51,0,0,0,3.48-3.6V31.56A3.48,3.48,0,0,0,74.4,28.08Z" style="fill:#3e4194"/><path d="M60.12,49.08a3,3,0,0,1-3-3V38.76a3,3,0,0,1,3-3H67.2a3.07,3.07,0,0,1,3.12,3v7.32a3.07,3.07,0,0,1-3.12,3Z" style="fill:#3e4194"/><path d="M67.2,36.24a2.64,2.64,0,0,1,2.64,2.52v7.32A2.64,2.64,0,0,1,67.2,48.6H60.12a2.62,2.62,0,0,1-2.52-2.52V38.76a2.62,2.62,0,0,1,2.52-2.52Zm0-1H60.12a3.48,3.48,0,0,0-3.48,3.48v7.32a3.48,3.48,0,0,0,3.48,3.48H67.2a3.51,3.51,0,0,0,3.6-3.48V38.76A3.51,3.51,0,0,0,67.2,35.28Z" style="fill:#3e4194"/><path d="M60.12,67a3.07,3.07,0,0,1-3-3.12v-7.2a3,3,0,0,1,3-3H67.2a3.07,3.07,0,0,1,3.12,3v7.2A3.18,3.18,0,0,1,67.2,67Z" style="fill:#3e4194"/><path d="M67.2,54.12a2.64,2.64,0,0,1,2.64,2.52v7.2a2.66,2.66,0,0,1-2.64,2.64H60.12a2.64,2.64,0,0,1-2.52-2.64v-7.2a2.62,2.62,0,0,1,2.52-2.52Zm0-1H60.12a3.48,3.48,0,0,0-3.48,3.48v7.2a3.51,3.51,0,0,0,3.48,3.6H67.2a3.54,3.54,0,0,0,3.6-3.6v-7.2A3.51,3.51,0,0,0,67.2,53.16Z" style="fill:#3e4194"/><path d="M39,67a3.18,3.18,0,0,1-3.12-3.12v-7.2a3.07,3.07,0,0,1,3.12-3h7.08a3,3,0,0,1,3,3v7.2a3.07,3.07,0,0,1-3,3.12Z" style="fill:#3e4194"/><path d="M46.08,54.12a2.62,2.62,0,0,1,2.52,2.52v7.2a2.64,2.64,0,0,1-2.52,2.64H39a2.66,2.66,0,0,1-2.64-2.64v-7.2A2.64,2.64,0,0,1,39,54.12Zm0-1H39a3.51,3.51,0,0,0-3.6,3.48v7.2a3.54,3.54,0,0,0,3.6,3.6h7.08a3.51,3.51,0,0,0,3.48-3.6v-7.2A3.48,3.48,0,0,0,46.08,53.16Z" style="fill:#3e4194"/><path d="M17.76,67a3.18,3.18,0,0,1-3.12-3.12v-7.2a3.07,3.07,0,0,1,3.12-3h7.08a3,3,0,0,1,3,3v7.2a3.07,3.07,0,0,1-3,3.12Z" style="fill:#3e4194"/><path d="M24.84,54.12a2.53,2.53,0,0,1,2.52,2.52v7.2a2.56,2.56,0,0,1-2.52,2.64H17.76a2.56,2.56,0,0,1-2.52-2.64v-7.2a2.53,2.53,0,0,1,2.52-2.52Zm0-1H17.76a3.51,3.51,0,0,0-3.6,3.48v7.2a3.54,3.54,0,0,0,3.6,3.6h7.08a3.51,3.51,0,0,0,3.48-3.6v-7.2A3.48,3.48,0,0,0,24.84,53.16Z" style="fill:#3e4194"/><path d="M39,84.84a3.18,3.18,0,0,1-3.12-3.12v-7.2a3.07,3.07,0,0,1,3.12-3h7.08a3,3,0,0,1,3,3v7.2a3.07,3.07,0,0,1-3,3.12Z" style="fill:#3e4194"/><path d="M46.08,72a2.53,2.53,0,0,1,2.52,2.52v7.2a2.53,2.53,0,0,1-2.52,2.52H39a2.56,2.56,0,0,1-2.64-2.52v-7.2A2.56,2.56,0,0,1,39,72Zm0-1H39a3.51,3.51,0,0,0-3.6,3.48v7.2a3.54,3.54,0,0,0,3.6,3.6h7.08a3.51,3.51,0,0,0,3.48-3.6v-7.2A3.48,3.48,0,0,0,46.08,71Z" style="fill:#3e4194"/><path d="M17.76,84.84a3.18,3.18,0,0,1-3.12-3.12v-7.2a3.07,3.07,0,0,1,3.12-3h7.08a3,3,0,0,1,3,3v7.2a3.07,3.07,0,0,1-3,3.12Z" style="fill:#3e4194"/><path d="M24.84,72a2.46,2.46,0,0,1,2.52,2.52v7.2a2.46,2.46,0,0,1-2.52,2.52H17.76a2.46,2.46,0,0,1-2.52-2.52v-7.2A2.46,2.46,0,0,1,17.76,72Zm0-1H17.76a3.51,3.51,0,0,0-3.6,3.48v7.2a3.54,3.54,0,0,0,3.6,3.6h7.08a3.51,3.51,0,0,0,3.48-3.6v-7.2A3.48,3.48,0,0,0,24.84,71Z" style="fill:#3e4194"/><path d="M.48,21.36V11.16A3.07,3.07,0,0,1,3.48,8h78a3.07,3.07,0,0,1,3,3.12v10.2Z" style="fill:#3e4194"/><path d="M81.48,8.64A2.46,2.46,0,0,1,84,11.16v9.72H1V11.16A2.53,2.53,0,0,1,3.48,8.64Zm0-1.08h-78A3.59,3.59,0,0,0,0,11.16V22H85V11.16A3.59,3.59,0,0,0,81.48,7.56Z" style="fill:#3e4194"/><path d="M68.28,14.76h-2a2.46,2.46,0,0,1-2.52-2.52V3A2.46,2.46,0,0,1,66.24.48h2A2.53,2.53,0,0,1,70.8,3v9.24A2.53,2.53,0,0,1,68.28,14.76Z" style="fill:#3e4194"/><path d="M68.28,14.76v-.48h-2a2.1,2.1,0,0,1-2-2V3a2,2,0,0,1,2-2h2a2,2,0,0,1,2,2v9.24a2.1,2.1,0,0,1-2,2v1a3,3,0,0,0,3-3V3a3,3,0,0,0-3-3h-2a3,3,0,0,0-3,3v9.24a3,3,0,0,0,3,3h2Z" style="fill:#3e4194"/><path d="M18.72,14.76h-2a2.53,2.53,0,0,1-2.52-2.52V3A2.53,2.53,0,0,1,16.68.48h2A2.46,2.46,0,0,1,21.24,3v9.24A2.46,2.46,0,0,1,18.72,14.76Z" style="fill:#3e4194"/><path d="M18.72,14.76v-.48h-2a2,2,0,0,1-1.92-2V3a1.93,1.93,0,0,1,1.92-2h2a2,2,0,0,1,2,2v9.24a2,2,0,0,1-2,2v1a3.07,3.07,0,0,0,3.12-3V3a3.07,3.07,0,0,0-3.12-3h-2a3,3,0,0,0-3,3v9.24a3,3,0,0,0,3,3h2Z" style="fill:#3e4194"/></g></g></svg>