<svg xmlns="http://www.w3.org/2000/svg" viewBox="0 0 99.24 99.24"><g id="Livello_2" data-name="Livello 2"><g id="Livello_1-2" data-name="Livello 1"><path d="M49.56,98.76a48.61,48.61,0,0,1-25.32-7.08H24L2.28,98H2a.86.86,0,0,1-.72-.36A.67.67,0,0,1,1.2,97L7.56,75.12,7.44,75A49.27,49.27,0,0,1,49.56.48a49.14,49.14,0,0,1,0,98.28Z" style="fill:#3e4194"/><path d="M49.56,1.08A48.6,48.6,0,1,1,24.48,91.32l-.24-.12h-.48L2.16,97.56H2a.44.44,0,0,1-.36-.12c0-.12-.12-.24,0-.36L8,75.48l.12-.36-.24-.48a48,48,0,0,1-7-25A48.63,48.63,0,0,1,49.56,1.08Zm0-1.08A49.6,49.6,0,0,0,0,49.68,48.69,48.69,0,0,0,7.08,75.24L.72,96.72A1.53,1.53,0,0,0,2,98.64c.12,0,.24-.12.48-.12L24,92.16A49.64,49.64,0,1,0,49.56,0Z" style="fill:#3e4194"/><path d="M42.12,73.92a.38.38,0,0,1-.36-.36V58.68a1.26,1.26,0,0,0-1.32-1.32H25.56c-.12,0-.24-.12-.24-.36V42.12a.26.26,0,0,1,.24-.24H40.44a1.26,1.26,0,0,0,1.32-1.32V25.68a.38.38,0,0,1,.36-.36H57a.32.32,0,0,1,.36.36V40.56a1.33,1.33,0,0,0,1.32,1.32H73.56a.26.26,0,0,1,.24.24V57c0,.24-.12.36-.24.36H58.68a1.33,1.33,0,0,0-1.32,1.32V73.56a.32.32,0,0,1-.36.36Z" style="fill:#fff"/><path d="M56.88,25.8V40.56a1.77,1.77,0,0,0,1.8,1.8H73.32V56.88H58.68a1.77,1.77,0,0,0-1.8,1.8V73.44H42.36V58.68a1.87,1.87,0,0,0-1.92-1.8H25.8V42.36H40.44a1.87,1.87,0,0,0,1.92-1.8V25.8Zm.12-1H42.12a.82.82,0,0,0-.84.84V40.56a.82.82,0,0,1-.84.84H25.56a.77.77,0,0,0-.72.72V57a.8.8,0,0,0,.72.84H40.44a.82.82,0,0,1,.84.84V73.56a.82.82,0,0,0,.84.84H57a.82.82,0,0,0,.84-.84V58.68a.82.82,0,0,1,.84-.84H73.56A.82.82,0,0,0,74.4,57V42.12a.8.8,0,0,0-.84-.72H58.68a.82.82,0,0,1-.84-.84V25.68A.82.82,0,0,0,57,24.84Z" style="fill:#3e4194"/></g></g></svg>