<svg xmlns="http://www.w3.org/2000/svg" viewBox="0 0 99.24 99.24"><g id="Livello_2" data-name="Livello 2"><g id="Livello_1-2" data-name="Livello 1"><path d="M49.68,98.76a49,49,0,0,1-27.6-8.52A47.5,47.5,0,0,1,9.24,77.64a49.14,49.14,0,1,1,80.76,0,47.5,47.5,0,0,1-12.84,12.6A48,48,0,0,1,49.68,98.76Z" style="fill:#3e4194"/><path d="M49.68,1.08a48.63,48.63,0,0,1,48.6,48.6,48.91,48.91,0,0,1-21.36,40.2,48.56,48.56,0,0,1-54.6,0A48.91,48.91,0,0,1,1,49.68,48.65,48.65,0,0,1,49.68,1.08Zm0-1.08A49.63,49.63,0,0,0,0,49.68,49,49,0,0,0,8.88,78,51.74,51.74,0,0,0,21.72,90.72a49.93,49.93,0,0,0,28,8.52,49.25,49.25,0,0,0,27.84-8.52A51.74,51.74,0,0,0,90.36,78a49,49,0,0,0,8.88-28.32A49.6,49.6,0,0,0,49.68,0Z" style="fill:#3e4194"/><path d="M49.68,49.2a13.74,13.74,0,1,1,0-27.48,13.74,13.74,0,0,1,0,27.48Z" style="fill:#fff"/><path d="M49.68,22.2A13.2,13.2,0,1,1,36.36,35.4,13.32,13.32,0,0,1,49.68,22.2Zm0-1A14.22,14.22,0,1,0,63.84,35.4,14.21,14.21,0,0,0,49.68,21.24Z" style="fill:#3e4194"/><path d="M49.68,98.76a48.78,48.78,0,0,1-27.48-8.4,24.29,24.29,0,0,1-.48-5.16,27.9,27.9,0,1,1,55.8,0A25,25,0,0,1,77,90.36,48.69,48.69,0,0,1,49.68,98.76Z" style="fill:#fff"/><path d="M49.68,57.72A27.53,27.53,0,0,1,77,85.2a23.55,23.55,0,0,1-.48,4.92,48.55,48.55,0,0,1-53.88,0,22.08,22.08,0,0,1-.48-4.92A27.55,27.55,0,0,1,49.68,57.72Zm0-1a28.72,28.72,0,0,0-28,34,49.93,49.93,0,0,0,28,8.52,49.25,49.25,0,0,0,27.84-8.52,28.73,28.73,0,0,0-27.84-34Z" style="fill:#3e4194"/><path d="M49.68,6A43.63,43.63,0,1,1,6,49.68,43.66,43.66,0,0,1,49.68,6Zm0-6A49.63,49.63,0,0,0,0,49.68,49,49,0,0,0,8.88,78,51.74,51.74,0,0,0,21.72,90.72a49.93,49.93,0,0,0,28,8.52,49.25,49.25,0,0,0,27.84-8.52A51.74,51.74,0,0,0,90.36,78a49,49,0,0,0,8.88-28.32A49.6,49.6,0,0,0,49.68,0Z" style="fill:#3e4194"/></g></g></svg>