<svg xmlns="http://www.w3.org/2000/svg" viewBox="0 0 99.24 99.24"><g id="Livello_2" data-name="Livello 2"><g id="Livello_1-2" data-name="Livello 1"><path d="M8.88,56.52a27.75,27.75,0,0,1-8.4-20C.48,21.24,12.6,8.76,27.6,8.76a26.83,26.83,0,0,1,21.6,11l.48.6.36-.6a26.83,26.83,0,0,1,21.6-11c15,0,27.12,12.48,27.12,27.72A27.89,27.89,0,0,1,90.84,56l-41,42.48Z" style="fill:#3e4194"/><path d="M71.64,9.24c14.64,0,26.64,12.24,26.64,27.24a27.14,27.14,0,0,1-7.8,19.2v.12L49.8,97.8,9.24,56.16A27.3,27.3,0,0,1,1,36.48C1,21.48,13,9.24,27.6,9.24A26.06,26.06,0,0,1,48.84,20.16l.84,1.08.72-1.08A26.22,26.22,0,0,1,71.64,9.24Zm0-1a27,27,0,0,0-22,11.28A27.44,27.44,0,0,0,27.6,8.28C12.36,8.28,0,20.88,0,36.48a28.34,28.34,0,0,0,8.52,20.4L49.8,99.24,91.2,56.4a28.74,28.74,0,0,0,8-19.92C99.24,20.88,86.88,8.28,71.64,8.28Z" style="fill:#3e4194"/><path d="M65.76,98.76a1.9,1.9,0,0,1-1.92-1.92V56.16H62.16a3.72,3.72,0,0,1-3.72-3.6V12.36A12,12,0,0,1,70.08.48V96.84a1.9,1.9,0,0,1-1.92,1.92Z" style="fill:#fff"/><path d="M69.6,1.08V96.84a1.46,1.46,0,0,1-1.44,1.44h-2.4a1.46,1.46,0,0,1-1.44-1.44V55.68H62.16a3.2,3.2,0,0,1-3.24-3.12V12.36A11.48,11.48,0,0,1,69.6,1.08ZM70.68,0A12.61,12.61,0,0,0,57.84,12.36v40.2a4.18,4.18,0,0,0,4.32,4.08h1.2v40.2a2.41,2.41,0,0,0,2.4,2.4h2.4a2.51,2.51,0,0,0,2.52-2.4Z" style="fill:#3e4194"/><path d="M30.72,98.76a1.67,1.67,0,0,1-1.8-1.68V32.88a1.53,1.53,0,0,0-1-1.32,7.79,7.79,0,0,1-4.32-6.72V1.08a.67.67,0,0,1,.72-.6h2a.57.57,0,0,1,.6.6V23.76a1.62,1.62,0,0,0,1.68,1.56,1.59,1.59,0,0,0,1.56-1.56V1.08a.64.64,0,0,1,.6-.6H33.6a.67.67,0,0,1,.72.6V23.76a1.59,1.59,0,0,0,1.56,1.56,1.62,1.62,0,0,0,1.68-1.56V1.08a.57.57,0,0,1,.6-.6h2a.57.57,0,0,1,.6.6V24.84a7.57,7.57,0,0,1-4.32,6.72,1.63,1.63,0,0,0-.84,1.32v64.2a1.74,1.74,0,0,1-1.8,1.68Z" style="fill:#fff"/><path d="M40.2,1a.12.12,0,0,1,.12.12V24.84a7.32,7.32,0,0,1-4,6.24,2.1,2.1,0,0,0-1.2,1.8v64.2a1.31,1.31,0,0,1-1.32,1.2H30.72a1.31,1.31,0,0,1-1.32-1.2V32.88a2.1,2.1,0,0,0-1.2-1.8,7.21,7.21,0,0,1-4.08-6.24V1.08A.42.42,0,0,1,24.36,1h2l.12.12V23.76a2.05,2.05,0,0,0,2.16,2,2,2,0,0,0,2-2V1.08L30.84,1H33.6a.12.12,0,0,1,.12.12V23.76a2.16,2.16,0,0,0,4.32,0V1.08A.12.12,0,0,1,38.16,1Zm0-1h-2a1.08,1.08,0,0,0-1.08,1.08V23.76a1.18,1.18,0,0,1-1.2,1.08,1.08,1.08,0,0,1-1.08-1.08V1.08A1.18,1.18,0,0,0,33.6,0H30.84a1.08,1.08,0,0,0-1.08,1.08V23.76a1.08,1.08,0,0,1-1.08,1.08,1.11,1.11,0,0,1-1.2-1.08V1.08A1.08,1.08,0,0,0,26.4,0h-2a1.11,1.11,0,0,0-1.2,1.08V24.84A8.24,8.24,0,0,0,27.72,32a.9.9,0,0,1,.6.84v64.2a2.29,2.29,0,0,0,2.4,2.16h3.12a2.18,2.18,0,0,0,2.28-2.16V32.88a.9.9,0,0,1,.6-.84,8.36,8.36,0,0,0,4.68-7.2V1.08A1.18,1.18,0,0,0,40.2,0Z" style="fill:#3e4194"/></g></g></svg>