<svg xmlns="http://www.w3.org/2000/svg" viewBox="0 0 99.21 99.24"><g id="Livello_2" data-name="Livello 2"><g id="Livello_1-2" data-name="Livello 1"><path d="M5.28,47A4.86,4.86,0,0,1,2,45.72l-.24-.24A4.64,4.64,0,0,1,.48,42.24,4.36,4.36,0,0,1,1.8,39.12L39,1.8A4.64,4.64,0,0,1,42.24.48,4.36,4.36,0,0,1,45.36,1.8l.36.36a4.42,4.42,0,0,1,0,6.36L8.52,45.72A4.86,4.86,0,0,1,5.28,47Z" style="fill:#3e4194"/><path d="M42.24,1A3.91,3.91,0,0,1,45,2.16l.36.36a3.91,3.91,0,0,1,1.2,2.76,4.19,4.19,0,0,1-1.2,2.88L8.16,45.36a3.9,3.9,0,0,1-2.88,1.2,3.9,3.9,0,0,1-2.88-1.2l-.24-.24a4,4,0,0,1,0-5.64L39.36,2.16A4.19,4.19,0,0,1,42.24,1Zm0-1a5.08,5.08,0,0,0-3.6,1.44L1.44,38.76a5.07,5.07,0,0,0,0,7.08l.24.24a5.29,5.29,0,0,0,3.6,1.44,5.29,5.29,0,0,0,3.6-1.44l37.2-37.2a5.07,5.07,0,0,0,0-7.08l-.36-.36A5,5,0,0,0,42.24,0Z" style="fill:#3e4194"/><path d="M5.28,32.28A4.86,4.86,0,0,1,2,31l-.24-.24a4.64,4.64,0,0,1,0-6.48L24.24,1.8A4.64,4.64,0,0,1,27.48.48,4.36,4.36,0,0,1,30.6,1.8l.36.36a4.36,4.36,0,0,1,1.32,3.12A4.64,4.64,0,0,1,31,8.52L8.52,31A4.86,4.86,0,0,1,5.28,32.28Z" style="fill:#3e4194"/><path d="M27.48,1a3.91,3.91,0,0,1,2.76,1.2l.36.36a4,4,0,0,1,0,5.64L8.16,30.6a4.43,4.43,0,0,1-2.88,1.2A4.43,4.43,0,0,1,2.4,30.6l-.24-.24a4.13,4.13,0,0,1,0-5.76L24.6,2.16A4.19,4.19,0,0,1,27.48,1Zm0-1a5.08,5.08,0,0,0-3.6,1.44L1.44,23.88a5.22,5.22,0,0,0,0,7.2l.24.24a5.29,5.29,0,0,0,3.6,1.44,5.29,5.29,0,0,0,3.6-1.44L31.32,8.88a5.07,5.07,0,0,0,0-7.08L31,1.44A5,5,0,0,0,27.48,0Z" style="fill:#3e4194"/><path d="M56.88,98.76a4.36,4.36,0,0,1-3.12-1.32l-.36-.36a4.64,4.64,0,0,1,0-6.36l37.32-37.2a4.36,4.36,0,0,1,3.12-1.32,4.64,4.64,0,0,1,3.24,1.32l.24.24A4.64,4.64,0,0,1,98.64,57a4.36,4.36,0,0,1-1.32,3.12L60.12,97.44A4.64,4.64,0,0,1,56.88,98.76Z" style="fill:#3e4194"/><path d="M93.84,52.68a3.72,3.72,0,0,1,2.88,1.2l.24.24a4,4,0,0,1,0,5.64L59.76,97.08a4.19,4.19,0,0,1-2.88,1.2,4.13,4.13,0,0,1-2.76-1.2l-.36-.36A3.8,3.8,0,0,1,52.68,94a4.09,4.09,0,0,1,1.08-2.88l37.32-37.2A3.48,3.48,0,0,1,93.84,52.68Zm0-1a5,5,0,0,0-3.48,1.44L53,90.36a5.07,5.07,0,0,0,0,7.08l.36.36a5,5,0,0,0,3.48,1.44,5.08,5.08,0,0,0,3.6-1.44l37.2-37.32a4.86,4.86,0,0,0,0-7.08l-.24-.24A5.08,5.08,0,0,0,93.84,51.72Z" style="fill:#3e4194"/><path d="M71.76,98.76a4.64,4.64,0,0,1-3.24-1.32l-.36-.36A4.36,4.36,0,0,1,66.84,94a4.64,4.64,0,0,1,1.32-3.24L90.72,68.28A4.36,4.36,0,0,1,93.84,67a4.64,4.64,0,0,1,3.24,1.32l.24.24a4.64,4.64,0,0,1,1.32,3.24,4.36,4.36,0,0,1-1.32,3.12L74.88,97.44A4.36,4.36,0,0,1,71.76,98.76Z" style="fill:#3e4194"/><path d="M93.84,67.44a3.72,3.72,0,0,1,2.88,1.2l.24.24a4.13,4.13,0,0,1,0,5.76L74.52,97.08a4.13,4.13,0,0,1-2.76,1.2,4.19,4.19,0,0,1-2.88-1.2l-.36-.36a4,4,0,0,1,0-5.64L91.08,68.64A3.48,3.48,0,0,1,93.84,67.44Zm0-1a5,5,0,0,0-3.48,1.44L67.92,90.36a4.86,4.86,0,0,0,0,7.08l.24.36a5.08,5.08,0,0,0,3.6,1.44,5,5,0,0,0,3.48-1.44L97.68,75.24a4.86,4.86,0,0,0,0-7.08l-.24-.24A5.08,5.08,0,0,0,93.84,66.48Z" style="fill:#3e4194"/><polygon points="24.36 31.08 31.08 24.48 74.76 68.16 68.16 74.88 24.36 31.08" style="fill:#fff"/><path d="M31.08,25.2l43.08,43-6,6L25.08,31.08Zm0-1.44-7.44,7.32L68.16,75.6l7.32-7.44Z" style="fill:#3e4194"/></g></g></svg>